<svg preserveAspectRatio="none" overflow="visible" style="display: block;" width="1285.61" height="456.653" viewBox="0 0 1285.61 456.653" fill="none" xmlns="http://www.w3.org/2000/svg">
<g id="Fynite" opacity="0.25">
<path id="Vector" opacity="0.4" d="M1089.9 0H1285.61V65.2362H1161.66V185.923H1260.17V251.159H1161.66V391.417H1285.61V456.653H1089.9V0Z" fill="url(#paint0_linear_0_25)"/>
<path id="Vector_2" opacity="0.4" d="M914.901 65.2362H839.88V0H1061.68V65.2362H986.661V456.653H914.901V65.2362Z" fill="url(#paint1_linear_0_25)"/>
<path id="Vector_3" opacity="0.4" d="M739.819 0H811.579V456.653H739.819V0Z" fill="url(#paint2_linear_0_25)"/>
<path id="Vector_4" opacity="0.4" d="M467.942 0H557.968L627.771 273.34H629.076V0H693.007V456.653H619.29L533.179 123.296H531.874V456.653H467.942V0Z" fill="url(#paint3_linear_0_25)"/>
<path id="Vector_5" opacity="0.4" d="M283.615 262.25L196.851 0H273.177L322.104 167.657H323.409L372.336 0H442.139L355.375 262.25V456.653H283.615V262.25Z" fill="url(#paint4_linear_0_25)"/>
<path id="Vector_6" opacity="0.4" d="M0 0H189.837V65.2362H71.7598V192.447H164.395V257.683H71.7598V456.653H0V0Z" fill="url(#paint5_linear_0_25)"/>
</g>
<defs>
<linearGradient id="paint0_linear_0_25" x1="636.753" y1="-130.347" x2="636.753" y2="652.653" gradientUnits="userSpaceOnUse">
<stop/>
<stop offset="1" stop-color="#F7F7F7" stop-opacity="0"/>
</linearGradient>
<linearGradient id="paint1_linear_0_25" x1="636.753" y1="-130.347" x2="636.753" y2="652.653" gradientUnits="userSpaceOnUse">
<stop/>
<stop offset="1" stop-color="#F7F7F7" stop-opacity="0"/>
</linearGradient>
<linearGradient id="paint2_linear_0_25" x1="636.753" y1="-130.347" x2="636.753" y2="652.653" gradientUnits="userSpaceOnUse">
<stop/>
<stop offset="1" stop-color="#F7F7F7" stop-opacity="0"/>
</linearGradient>
<linearGradient id="paint3_linear_0_25" x1="636.753" y1="-130.347" x2="636.753" y2="652.653" gradientUnits="userSpaceOnUse">
<stop/>
<stop offset="1" stop-color="#F7F7F7" stop-opacity="0"/>
</linearGradient>
<linearGradient id="paint4_linear_0_25" x1="636.754" y1="-130.347" x2="636.754" y2="652.653" gradientUnits="userSpaceOnUse">
<stop/>
<stop offset="1" stop-color="#F7F7F7" stop-opacity="0"/>
</linearGradient>
<linearGradient id="paint5_linear_0_25" x1="636.753" y1="-130.347" x2="636.753" y2="652.653" gradientUnits="userSpaceOnUse">
<stop/>
<stop offset="1" stop-color="#F7F7F7" stop-opacity="0"/>
</linearGradient>
</defs>
</svg>
