<svg preserveAspectRatio="none" overflow="visible" style="display: block;" width="28.6673" height="26.0007" viewBox="0 0 28.6673 26.0007" fill="none" xmlns="http://www.w3.org/2000/svg">
<g id="Layer 2">
<path id="Vector" d="M5.66667 10.666H1.66667C0.746192 10.666 0 11.4122 0 12.3327V24.3327C0 25.2532 0.746192 25.9993 1.66667 25.9993H5.66667C6.58714 25.9993 7.33333 25.2532 7.33333 24.3327V12.3327C7.33333 11.4122 6.58714 10.666 5.66667 10.666Z" fill="white"/>
<path id="Vector_2" d="M16.3346 5.33398H12.3346C11.4142 5.33398 10.668 6.08018 10.668 7.00065V24.334C10.668 25.2545 11.4142 26.0007 12.3346 26.0007H16.3346C17.2551 26.0007 18.0013 25.2545 18.0013 24.334V7.00065C18.0013 6.08018 17.2551 5.33398 16.3346 5.33398Z" fill="white"/>
<path id="Vector_3" d="M27.0007 0H23.0007C22.0802 0 21.334 0.746192 21.334 1.66667V24.3333C21.334 25.2538 22.0802 26 23.0007 26H27.0007C27.9211 26 28.6673 25.2538 28.6673 24.3333V1.66667C28.6673 0.746192 27.9211 0 27.0007 0Z" fill="white"/>
</g>
</svg>
