<svg preserveAspectRatio="none" overflow="visible" style="display: block;" width="32.8846" height="32.8875" viewBox="0 0 32.8846 32.8875" fill="none" xmlns="http://www.w3.org/2000/svg">
<g id="Group">
<path id="Vector" d="M11.0453 13.0422C15.3511 10.9829 18.7209 7.48835 20.6554 3.12015C19.4073 1.80969 17.7848 0.873641 16.0376 0.312015L15.1015 0C15.0391 0.124806 14.9767 0.312022 14.9767 0.436828C13.479 4.68023 10.4213 8.11239 6.3027 10.0469C3.43217 11.4197 1.31046 13.9159 0.312015 16.9112L0 17.8472C0.124806 17.9097 0.312018 17.972 0.436823 17.972C1.62248 18.4089 2.80813 18.9705 3.93139 19.6569C5.49146 16.8488 7.98757 14.4775 11.0453 13.0422Z" fill="#4D4D4D" fill-opacity="0.6"/>
<path id="Vector_2" d="M29.1402 13.293C26.8313 16.7875 23.6487 19.5957 19.7173 21.4678C16.5348 22.9654 14.1011 25.7736 12.9778 29.1433L12.6658 30.2042C13.8514 31.265 15.2867 32.0763 16.8468 32.5755L17.7828 32.8875C17.8452 32.7627 17.9076 32.5755 17.9076 32.4507C19.4053 28.2073 22.4631 24.7751 26.5816 22.8406C29.4522 21.4678 31.6363 18.9716 32.5723 15.9763L32.8843 15.0403C31.5739 14.6658 30.3258 14.0418 29.1402 13.293Z" fill="#4D4D4D" fill-opacity="0.6"/>
<path id="Vector_3" d="M10.1703 26.9603C11.7304 23.2161 14.601 20.1583 18.2827 18.4111C21.6525 16.7886 24.4606 14.2925 26.3951 11.2347C24.9598 9.86186 23.7742 8.30178 22.9005 6.42969C20.5916 10.6731 16.9723 14.1053 12.5417 16.227C9.98314 17.4126 7.92384 19.4719 6.67578 21.968C8.04865 23.2785 9.1719 24.901 10.0455 26.7106C10.0455 26.7106 10.1079 26.8355 10.1703 26.9603Z" fill="#4D4D4D" fill-opacity="0.6"/>
</g>
</svg>
