<svg preserveAspectRatio="none" overflow="visible" style="display: block;" width="45" height="45" viewBox="0 0 45 45" fill="none" xmlns="http://www.w3.org/2000/svg">
<g id="Link">
<rect x="0.5625" y="0.5625" width="43.875" height="43.875" rx="21.9375" fill="white" fill-opacity="0.05"/>
<rect x="0.5625" y="0.5625" width="43.875" height="43.875" rx="21.9375" stroke="#C4C7C7" stroke-width="1.125"/>
<path id="Icon" d="M22.5 30.5C21.3933 30.5 20.3533 30.29 19.38 29.87C18.4067 29.45 17.56 28.88 16.84 28.16C16.12 27.44 15.55 26.5933 15.13 25.62C14.71 24.6467 14.5 23.6067 14.5 22.5C14.5 21.3933 14.71 20.3533 15.13 19.38C15.55 18.4067 16.12 17.56 16.84 16.84C17.56 16.12 18.4067 15.55 19.38 15.13C20.3533 14.71 21.3933 14.5 22.5 14.5C23.6067 14.5 24.6467 14.71 25.62 15.13C26.5933 15.55 27.44 16.12 28.16 16.84C28.88 17.56 29.45 18.4067 29.87 19.38C30.29 20.3533 30.5 21.3933 30.5 22.5C30.5 23.6067 30.29 24.6467 29.87 25.62C29.45 26.5933 28.88 27.44 28.16 28.16C27.44 28.88 26.5933 29.45 25.62 29.87C24.6467 30.29 23.6067 30.5 22.5 30.5ZM21.7 28.86V27.3C21.26 27.3 20.8833 27.1433 20.57 26.83C20.2567 26.5167 20.1 26.14 20.1 25.7V24.9L16.26 21.06C16.22 21.3 16.1833 21.54 16.15 21.78C16.1167 22.02 16.1 22.26 16.1 22.5C16.1 24.1133 16.63 25.5267 17.69 26.74C18.75 27.9533 20.0867 28.66 21.7 28.86ZM27.22 26.82C27.7667 26.22 28.1833 25.55 28.47 24.81C28.7567 24.07 28.9 23.3 28.9 22.5C28.9 21.1933 28.5367 20 27.81 18.92C27.0833 17.84 26.1133 17.06 24.9 16.58V16.9C24.9 17.34 24.7433 17.7167 24.43 18.03C24.1167 18.3433 23.74 18.5 23.3 18.5H21.7V20.1C21.7 20.3267 21.6233 20.5167 21.47 20.67C21.3167 20.8233 21.1267 20.9 20.9 20.9H19.3V22.5H24.1C24.3267 22.5 24.5167 22.5767 24.67 22.73C24.8233 22.8833 24.9 23.0733 24.9 23.3V25.7H25.7C26.0467 25.7 26.36 25.8033 26.64 26.01C26.92 26.2167 27.1133 26.4867 27.22 26.82Z" fill="white"/>
</g>
</svg>
