<svg width="1286" height="457" viewBox="0 0 1286 457" fill="none" xmlns="http://www.w3.org/2000/svg">
<g opacity="0.25">
<path opacity="0.4" d="M1090.23 0H1286V65.2559H1162.01V185.979H1260.55V251.235H1162.01V391.535H1286V456.791H1090.23V0Z" fill="url(#paint0_linear_1_8)"/>
<path opacity="0.4" d="M915.178 65.2559H840.133V0H1062V65.2559H986.959V456.791H915.178V65.2559Z" fill="url(#paint1_linear_1_8)"/>
<path opacity="0.4" d="M740.043 0H811.824V456.791H740.043V0Z" fill="url(#paint2_linear_1_8)"/>
<path opacity="0.4" d="M468.084 0H558.137L627.961 273.422H629.266V0H693.216V456.791H619.477L533.34 123.334H532.034V456.791H468.084V0Z" fill="url(#paint3_linear_1_8)"/>
<path opacity="0.4" d="M283.7 262.329L196.91 0H273.259L322.201 167.708H323.506L372.448 0H442.272L355.482 262.329V456.791H283.7V262.329Z" fill="url(#paint4_linear_1_8)"/>
<path opacity="0.4" d="M0 0H189.895V65.2559H71.7815V192.505H164.445V257.761H71.7815V456.791H0V0Z" fill="url(#paint5_linear_1_8)"/>
</g>
<defs>
<linearGradient id="paint0_linear_1_8" x1="636.946" y1="-130.386" x2="636.946" y2="652.85" gradientUnits="userSpaceOnUse">
<stop/>
<stop offset="1" stop-color="#F7F7F7" stop-opacity="0"/>
</linearGradient>
<linearGradient id="paint1_linear_1_8" x1="636.945" y1="-130.386" x2="636.945" y2="652.85" gradientUnits="userSpaceOnUse">
<stop/>
<stop offset="1" stop-color="#F7F7F7" stop-opacity="0"/>
</linearGradient>
<linearGradient id="paint2_linear_1_8" x1="636.945" y1="-130.386" x2="636.945" y2="652.85" gradientUnits="userSpaceOnUse">
<stop/>
<stop offset="1" stop-color="#F7F7F7" stop-opacity="0"/>
</linearGradient>
<linearGradient id="paint3_linear_1_8" x1="636.946" y1="-130.386" x2="636.946" y2="652.85" gradientUnits="userSpaceOnUse">
<stop/>
<stop offset="1" stop-color="#F7F7F7" stop-opacity="0"/>
</linearGradient>
<linearGradient id="paint4_linear_1_8" x1="636.946" y1="-130.386" x2="636.946" y2="652.85" gradientUnits="userSpaceOnUse">
<stop/>
<stop offset="1" stop-color="#F7F7F7" stop-opacity="0"/>
</linearGradient>
<linearGradient id="paint5_linear_1_8" x1="636.945" y1="-130.386" x2="636.945" y2="652.85" gradientUnits="userSpaceOnUse">
<stop/>
<stop offset="1" stop-color="#F7F7F7" stop-opacity="0"/>
</linearGradient>
</defs>
</svg>
