<svg width="146" height="33" viewBox="0 0 146 33" fill="none" xmlns="http://www.w3.org/2000/svg">
<g id="FinFynite &#226;&#128;&#148; Fintech Landing Page Concept">
<g id="Frame 1000005790">
<g id="Logos">
<g id="Frame 1000005708">
<g id="Group">
<g id="Group_2">
<path id="Vector" d="M19.8728 25.4947C17.1772 24.4934 14.4046 24.3394 11.8631 25.0326C10.0917 25.4947 8.39734 26.4189 6.85701 27.5741L5.77876 28.4983L5.4707 28.8064L6.16385 29.4225C6.24086 29.4225 6.24087 29.4995 6.31789 29.5765C6.47192 29.7306 6.62596 29.8076 6.85701 29.9616L7.31909 30.2697L7.78119 29.8846C7.85821 29.8076 8.01224 29.6535 8.16627 29.5765C9.55257 28.4213 11.0929 27.6511 12.7102 27.266C14.7897 26.7269 17.0231 26.8039 19.2566 27.6511C21.105 28.3443 24.8788 29.1915 29.4228 27.266L29.5768 27.189L29.8079 26.958C29.8079 26.881 29.8849 26.881 29.9619 26.8039C30.347 26.3418 30.7321 25.8797 31.0401 25.3406L32.5805 22.9531L30.1159 24.3394C26.4962 26.3418 23.1845 26.7269 19.8728 25.4947Z" fill="#4D4D4D" fill-opacity="0.6"/>
<path id="Vector_2" d="M9.32452 17.1779C11.404 16.6388 13.6374 16.7158 15.8709 17.563C18.3354 18.4872 24.6508 19.7965 31.7363 13.4041L32.8915 12.2489L32.9686 12.1719L33.2766 11.8638L33.1226 11.4787C33.0456 11.1707 32.8915 10.7856 32.7375 10.4005L32.3524 9.32227L31.5822 10.0924C31.5052 10.2465 31.3512 10.3235 31.1972 10.4775C27.8084 13.9432 22.5713 17.486 16.5641 15.3296C13.8685 14.3283 11.0959 14.1743 8.55436 14.8674C6.08984 15.5606 3.93338 16.8699 1.93095 18.7183V18.6412L0.775707 19.8735C0.775707 19.9505 0.698704 19.9505 0.621688 20.0276L0.390625 20.2586L0.467646 20.5667C0.544662 20.9517 0.69869 21.3368 0.775707 21.7219L1.23781 22.9542L2.00797 21.953C2.08499 21.7989 2.23902 21.7219 2.31603 21.5679C3.93338 20.1046 6.16686 18.0251 9.32452 17.1779Z" fill="#4D4D4D" fill-opacity="0.6"/>
<path id="Vector_3" d="M1.84841 15.7909C3.61979 13.9425 5.6222 12.7873 7.77866 12.1711C9.8581 11.632 12.0916 11.709 14.325 12.5562C21.2565 15.0978 27.2638 10.9389 29.8824 8.7054L30.8836 7.7042L31.2686 7.39611L30.9606 6.93403C30.7295 6.70298 30.5755 6.39491 30.3445 6.08685L29.8824 5.4707L29.3432 6.00983C29.2662 6.08684 29.1122 6.24087 29.0352 6.31789C25.8005 9.39854 20.7944 12.5562 15.0952 10.3998C12.3996 9.39855 9.62705 9.24452 7.08551 9.93766C5.46817 10.3998 3.92784 11.1699 2.38751 12.1711L0.770163 13.4804C0.616131 13.6345 0.539114 13.7115 0.385082 13.8655L0.231063 14.0195V14.2506C0.154047 14.7897 0.154037 15.3288 0.077021 15.7909L0 17.7163L1.30929 16.33C1.46332 16.176 1.61736 15.9449 1.84841 15.7909Z" fill="#4D4D4D" fill-opacity="0.6"/>
<path id="Vector_4" d="M22.1103 30.724L21.9563 31.1861L22.1103 30.724C21.8792 30.6469 21.7252 30.5699 21.4942 30.4929C18.7986 29.4917 16.026 29.3377 13.4845 30.0308C12.9453 30.1848 12.4062 30.3389 11.8671 30.5699L10.0187 31.4171L9.55664 31.6481L11.097 32.1873C11.5591 32.3413 12.0212 32.4953 12.4833 32.6494L12.7143 32.7264L12.9454 32.6494C13.1764 32.5723 13.4074 32.4183 13.6385 32.4183C13.7925 32.4183 13.9466 32.3413 14.1006 32.2643C15.949 31.8022 17.9514 31.8022 20.1079 32.4953C20.3389 32.5723 20.493 32.6494 20.724 32.7264L21.1091 32.8804L21.3401 32.8034C21.8792 32.6494 22.4954 32.4953 22.9575 32.2643L25.1139 31.4941L22.8805 30.955C22.6494 30.878 22.3413 30.801 22.1103 30.724Z" fill="#4D4D4D" fill-opacity="0.6"/>
<path id="Vector_5" d="M33.8945 14.7832L32.7392 15.9384C32.5852 16.0925 32.4312 16.2465 32.2771 16.4006C29.1195 19.4042 24.0364 22.6389 18.3372 20.4824C15.6416 19.4812 12.869 19.3272 10.3275 20.0203C7.93997 20.7135 5.7835 21.9457 3.85809 23.7941L2.85689 24.8723L2.54883 25.2574L2.85689 25.7195C3.08794 26.0276 3.24198 26.2586 3.39601 26.5667L3.85809 27.2599L4.39721 26.5667C4.47423 26.4897 4.62826 26.3356 4.70528 26.2586C6.55367 24.2562 8.55609 23.0239 10.8666 22.4078C12.946 21.8687 15.1795 21.9457 17.413 22.7929C19.3384 23.486 21.3408 23.7171 23.3432 23.4861C26.886 23.101 30.4287 21.0986 33.0473 18.8651C33.2013 18.711 33.3553 18.634 33.5094 18.48L33.7404 18.2489V18.0179C33.7404 17.5558 33.8175 17.0167 33.8175 16.5546L33.8945 14.7832Z" fill="#4D4D4D" fill-opacity="0.6"/>
<path id="Vector_6" d="M4.62419 7.70645L4.39315 7.24434L4.62419 7.70645C5.08629 7.4754 5.62542 7.32135 6.08752 7.16732C8.16696 6.62821 10.4004 6.70522 12.6339 7.5524C14.0972 8.09152 15.5605 8.32257 17.1779 8.32257C20.4126 8.32257 23.6472 7.16733 26.6509 4.93385L27.8061 4.00965L28.1912 3.70159L27.4981 3.16246C27.267 2.93141 26.9589 2.70037 26.6509 2.54634L26.1888 2.23828L25.8037 2.54634C25.6496 2.62336 25.5726 2.77739 25.4186 2.8544C21.3367 5.93506 17.2549 6.78225 13.4041 5.31893C10.6315 4.31772 7.85888 4.08667 5.0863 4.93385C4.85525 5.01087 4.6242 5.08788 4.31613 5.16489L4.16211 5.24191L3.93105 5.47295C3.93105 5.54997 3.85405 5.54998 3.77703 5.627C3.46897 6.08909 3.08387 6.47418 2.77581 6.93628L1.3125 9.16975L3.70001 7.93749C4.08509 7.93749 4.39314 7.78346 4.62419 7.70645Z" fill="#4D4D4D" fill-opacity="0.6"/>
<path id="Vector_7" d="M10.9411 2.46451L11.1721 2.54153C12.1733 2.92661 13.7137 3.31169 15.6391 3.31169C17.6415 3.31169 19.5669 2.84959 21.4923 2.07943L23.8798 0.924182L22.2625 0.385082C21.8004 0.231049 21.3383 0.0770163 20.7992 0H20.5681L20.3371 0.0769975C20.106 0.154014 19.875 0.308065 19.6439 0.385082C17.3334 1.23226 15.023 1.38629 12.7895 0.770163C12.5584 0.693147 12.3274 0.616116 12.0963 0.5391L11.8653 0.462079L11.6342 0.5391C11.1721 0.693133 10.7101 0.847175 10.248 1.07822L8.47656 1.84839L10.325 2.38749C10.479 2.31047 10.71 2.38749 10.9411 2.46451Z" fill="#4D4D4D" fill-opacity="0.6"/>
</g>
</g>
<path id="VitaGrowth" d="M42.522 10.4226H44.8695L48.862 21.0693L52.8915 10.4226H55.165L49.9341 23.3613H47.679L42.522 10.4226ZM56.6147 13.5464H58.7219V23.3613H56.6147V13.5464ZM57.6683 9.49839C58.0256 9.49839 58.3214 9.61545 58.5555 9.84958C58.7896 10.0837 58.9067 10.3795 58.9067 10.7368C58.9067 11.0818 58.7896 11.3776 58.5555 11.624C58.3214 11.8582 58.0256 11.9752 57.6683 11.9752C57.3232 11.9752 57.0275 11.8582 56.781 11.624C56.5469 11.3776 56.4299 11.0818 56.4299 10.7368C56.4299 10.3795 56.5469 10.0837 56.781 9.84958C57.0275 9.61545 57.3232 9.49839 57.6683 9.49839ZM64.1779 20.256C64.1779 20.7859 64.2704 21.1494 64.4552 21.3466C64.64 21.5314 64.8988 21.6238 65.2315 21.6238C65.4533 21.6238 65.6813 21.5869 65.9154 21.5129C66.1619 21.439 66.4268 21.3281 66.7102 21.1802L67.2463 22.7144C66.8643 22.9485 66.4699 23.1334 66.0633 23.2689C65.6566 23.3921 65.2438 23.4537 64.8249 23.4537C64.332 23.4537 63.876 23.3613 63.4571 23.1765C63.0381 22.9793 62.6992 22.6713 62.4404 22.2523C62.194 21.8333 62.0708 21.2911 62.0708 20.6257V11.2174H64.1779V20.256ZM60.6845 13.8976H67.0799V15.4132H60.6845V13.8976ZM72.2411 18.9806C71.551 18.9806 71.0397 19.0854 70.7069 19.2949C70.3742 19.5044 70.2079 19.8494 70.2079 20.33C70.2079 20.7859 70.3742 21.1494 70.7069 21.4205C71.052 21.6916 71.5202 21.8272 72.1117 21.8272C72.6416 21.8272 73.116 21.7347 73.535 21.5499C73.954 21.3651 74.2867 21.1186 74.5331 20.8105C74.7796 20.4902 74.909 20.1328 74.9213 19.7385L75.3279 21.5314C75.0199 22.1722 74.5516 22.6528 73.9231 22.9732C73.2947 23.2936 72.543 23.4537 71.6681 23.4537C70.9657 23.4537 70.3558 23.3182 69.8382 23.0471C69.3207 22.776 68.9202 22.4125 68.6367 21.9566C68.3533 21.4883 68.2116 20.9707 68.2116 20.4039C68.2116 19.5167 68.532 18.8081 69.1728 18.2783C69.8259 17.7484 70.7439 17.4773 71.9269 17.465H75.1801V18.9806H72.2411ZM74.9028 17.1322C74.9028 16.4915 74.7056 15.9924 74.3113 15.6351C73.917 15.2777 73.3317 15.099 72.5553 15.099C72.0871 15.099 71.6065 15.1853 71.1136 15.3578C70.633 15.5303 70.1463 15.7829 69.6534 16.1156L68.7846 14.7478C69.2406 14.4644 69.6718 14.2303 70.0785 14.0454C70.4851 13.8606 70.9164 13.7189 71.3724 13.6203C71.8406 13.5217 72.389 13.4724 73.0174 13.4724C74.2867 13.4724 75.2602 13.7805 75.9379 14.3966C76.628 15.0004 76.9792 15.8384 76.9915 16.9104L77.01 23.3613H74.9213L74.9028 17.1322ZM89.2847 13.6203C88.7918 13.152 88.2127 12.7885 87.5472 12.5298C86.8941 12.2587 86.2287 12.1231 85.551 12.1231C84.8856 12.1231 84.2694 12.2463 83.7026 12.4928C83.1357 12.7392 82.6367 13.0781 82.2054 13.5094C81.7741 13.9407 81.4352 14.4459 81.1888 15.0251C80.9546 15.5919 80.8376 16.2081 80.8376 16.8735C80.8376 17.5389 80.9546 18.1612 81.1888 18.7403C81.4352 19.3195 81.7741 19.8309 82.2054 20.2745C82.6367 20.7058 83.1357 21.0447 83.7026 21.2911C84.2817 21.5376 84.904 21.6608 85.5695 21.6608C86.1733 21.6608 86.7956 21.5376 87.4363 21.2911C88.0894 21.0447 88.6748 20.712 89.1923 20.293L90.4492 21.8087C90.0179 22.1414 89.5189 22.4371 88.952 22.6959C88.3975 22.9547 87.8183 23.158 87.2145 23.3059C86.6107 23.4414 86.0131 23.5092 85.4216 23.5092C84.4604 23.5092 83.567 23.3428 82.7414 23.0101C81.9281 22.6651 81.2073 22.1907 80.5788 21.5869C79.9627 20.9831 79.4821 20.2807 79.1371 19.4797C78.792 18.6664 78.6195 17.7977 78.6195 16.8735C78.6195 15.9493 78.792 15.0929 79.1371 14.3042C79.4944 13.5032 79.9873 12.8008 80.6158 12.197C81.2442 11.5932 81.9774 11.125 82.8154 10.7923C83.6656 10.4596 84.5775 10.2932 85.551 10.2932C86.1671 10.2932 86.7709 10.3671 87.3624 10.515C87.9662 10.6629 88.5392 10.8724 89.0814 11.1435C89.6236 11.4146 90.1042 11.7411 90.5232 12.1231L89.2847 13.6203ZM88.5454 17.0398H90.4492V21.8087H88.5454V17.0398ZM98.7489 15.3948C98.0465 15.3578 97.4366 15.481 96.919 15.7644C96.4138 16.0355 96.0195 16.4175 95.736 16.9104C95.4649 17.4033 95.3294 17.9702 95.3294 18.611L94.7379 18.537C94.7379 17.4403 94.8981 16.5161 95.2185 15.7644C95.5389 15.0128 96.001 14.4459 96.6048 14.0639C97.2086 13.6696 97.9233 13.4724 98.7489 13.4724V15.3948ZM93.2222 13.5464H95.3479V23.3613H93.2222V13.5464ZM104.526 13.4724C105.537 13.4724 106.424 13.6819 107.188 14.1009C107.964 14.5199 108.568 15.1052 108.999 15.8569C109.431 16.5962 109.646 17.4588 109.646 18.4446C109.646 19.4304 109.431 20.2992 108.999 21.0508C108.568 21.8025 107.964 22.3878 107.188 22.8068C106.424 23.2258 105.537 23.4353 104.526 23.4353C103.516 23.4353 102.622 23.2258 101.846 22.8068C101.07 22.3878 100.466 21.8025 100.035 21.0508C99.6033 20.2992 99.3876 19.4304 99.3876 18.4446C99.3876 17.4588 99.6033 16.5962 100.035 15.8569C100.466 15.1052 101.07 14.5199 101.846 14.1009C102.622 13.6819 103.516 13.4724 104.526 13.4724ZM104.526 15.1914C103.935 15.1914 103.411 15.3331 102.955 15.6166C102.499 15.8877 102.142 16.2697 101.883 16.7626C101.637 17.2555 101.513 17.8223 101.513 18.4631C101.513 19.1162 101.637 19.6892 101.883 20.1821C102.142 20.675 102.499 21.0632 102.955 21.3466C103.411 21.6177 103.935 21.7532 104.526 21.7532C105.118 21.7532 105.635 21.6177 106.079 21.3466C106.535 21.0632 106.886 20.675 107.132 20.1821C107.391 19.6892 107.521 19.1162 107.521 18.4631C107.521 17.8223 107.391 17.2555 107.132 16.7626C106.886 16.2697 106.535 15.8877 106.079 15.6166C105.635 15.3331 105.118 15.1914 104.526 15.1914ZM109.766 13.5464H111.947L114.498 21.402L116.975 13.5464H119.174L121.669 21.402L124.183 13.5464H126.346L122.76 23.3613H120.56L118.065 15.9308L115.57 23.3613H113.389L109.766 13.5464ZM130.127 20.256C130.127 20.7859 130.22 21.1494 130.405 21.3466C130.589 21.5314 130.848 21.6238 131.181 21.6238C131.403 21.6238 131.631 21.5869 131.865 21.5129C132.111 21.439 132.376 21.3281 132.66 21.1802L133.196 22.7144C132.814 22.9485 132.419 23.1334 132.013 23.2689C131.606 23.3921 131.193 23.4537 130.774 23.4537C130.281 23.4537 129.825 23.3613 129.406 23.1765C128.987 22.9793 128.649 22.6713 128.39 22.2523C128.143 21.8333 128.02 21.2911 128.02 20.6257V11.2174H130.127V20.256ZM126.634 13.8976H133.029V15.4132H126.634V13.8976ZM142.368 17.8162C142.368 17.0522 142.158 16.4545 141.739 16.0232C141.32 15.5796 140.741 15.3578 140.002 15.3578C139.127 15.3701 138.437 15.6782 137.932 16.282C137.439 16.8858 137.192 17.6375 137.192 18.537H136.601C136.601 17.3171 136.773 16.3374 137.118 15.5981C137.463 14.8587 137.95 14.3227 138.579 13.99C139.219 13.6449 139.971 13.4724 140.834 13.4724C141.598 13.4724 142.251 13.6265 142.793 13.9345C143.347 14.2426 143.766 14.68 144.05 15.2469C144.346 15.8014 144.493 16.473 144.493 17.2616V23.3613H142.368V17.8162ZM135.067 9.64626H137.192V23.3613H135.067V9.64626Z" fill="#4D4D4D" fill-opacity="0.6"/>
</g>
</g>
</g>
</g>
</svg>
