<svg width="131" height="36" viewBox="0 0 131 36" fill="none" xmlns="http://www.w3.org/2000/svg">
<g id="FinFynite &#226;&#128;&#148; Fintech Landing Page Concept">
<g id="Frame 1000005790">
<g id="Logos">
<g id="Frame 1000005706">
<path id="Vector" d="M27.8615 18.0367L33.5804 12.3177C34.9002 10.998 34.9002 8.94502 33.5804 7.62526L25.4419 15.7637L23.9756 14.2973L29.7678 8.50509C31.0876 7.18534 31.0876 5.13239 29.7678 3.81264L21.556 12.0244L20.0896 10.5581L25.9552 4.69247C27.275 3.37271 27.275 1.31976 25.9552 0L17.6701 8.1385L12.391 2.78615C11.0713 1.4664 9.01833 1.4664 7.69858 2.78615L15.3238 10.4114L13.7841 11.9511L8.5051 6.6721C7.18534 5.35235 5.13237 5.35235 3.81261 6.6721L11.4379 14.2973L9.97149 15.7637L4.69246 10.4847C3.37271 9.16497 1.31976 9.16497 0 10.4847L7.4786 17.9633L1.75967 23.6823C0.439914 25.002 0.439914 27.055 1.75967 28.3748L9.89817 20.2363L11.3646 21.7026L5.57231 27.4949C4.25255 28.8147 4.25255 30.8676 5.57231 32.1874L13.7841 23.9756L15.2505 25.442L9.38492 31.3075C8.06517 32.6273 8.06517 34.6802 9.38492 36L17.5967 27.7882L22.8758 33.1405C24.1955 34.4603 26.2485 34.4603 27.5682 33.1405L19.943 25.5153L21.4827 23.9756L26.7617 29.2546C28.0815 30.5743 30.1344 30.5743 31.4542 29.2546L23.8289 21.6293L25.2953 20.1629L30.5743 25.442C31.8941 26.7617 33.9471 26.7617 35.2668 25.442L27.8615 18.0367ZM17.6701 12.7576L19.1365 14.224L17.5967 15.7637L16.1304 14.2973L17.6701 12.7576ZM13.7841 19.3564L12.4644 18.0367L13.7841 16.7169L15.1039 18.11L13.7841 19.3564ZM17.6701 23.169L16.2037 21.7026L17.7434 20.1629L19.2098 21.6293L17.6701 23.169ZM20.2363 17.9633L21.556 16.6436L22.8758 17.9633L21.556 19.2831L20.2363 17.9633Z" fill="#4D4D4D" fill-opacity="0.6"/>
<path id="RankVerse" d="M47.0725 12.1042C48.6562 12.1042 49.8762 12.4737 50.7326 13.2127C51.6007 13.9401 52.0348 14.9666 52.0348 16.2922C52.0348 17.6765 51.6007 18.7557 50.7326 19.53C49.8762 20.2925 48.6562 20.6738 47.0725 20.6738H44.1514V24.4219H42.075V12.1042H47.0725ZM47.0725 18.8965C48.0227 18.8965 48.7559 18.6912 49.2721 18.2806C49.8 17.8583 50.0639 17.2131 50.0639 16.345C50.0639 15.5121 49.8 14.8962 49.2721 14.4973C48.7559 14.0867 48.0227 13.8814 47.0725 13.8814H44.1514V18.8965H47.0725ZM47.1429 19.8643H49.1841L52.2459 24.4219H49.888L47.1429 19.8643ZM57.5541 20.2514C56.8972 20.2514 56.4103 20.3512 56.0936 20.5506C55.7768 20.75 55.6185 21.0785 55.6185 21.536C55.6185 21.9701 55.7768 22.3161 56.0936 22.5742C56.4221 22.8323 56.8678 22.9613 57.4309 22.9613C57.9354 22.9613 58.387 22.8734 58.7859 22.6974C59.1847 22.5214 59.5015 22.2868 59.7361 21.9935C59.9707 21.6885 60.0939 21.3483 60.1056 20.9729L60.4928 22.6798C60.1995 23.2898 59.7537 23.7473 59.1554 24.0523C58.5571 24.3574 57.8415 24.5099 57.0086 24.5099C56.3399 24.5099 55.7592 24.3808 55.2665 24.1227C54.7738 23.8646 54.3926 23.5186 54.1227 23.0845C53.8529 22.6387 53.718 22.146 53.718 21.6064C53.718 20.7618 54.023 20.0872 54.633 19.5828C55.2548 19.0783 56.1288 18.8202 57.255 18.8085H60.352V20.2514H57.5541ZM60.088 18.4918C60.088 17.8818 59.9003 17.4066 59.5249 17.0664C59.1495 16.7262 58.5923 16.5561 57.8533 16.5561C57.4075 16.5561 56.95 16.6382 56.4807 16.8025C56.0232 16.9667 55.5598 17.2072 55.0906 17.524L54.2635 16.2218C54.6976 15.952 55.1082 15.7291 55.4953 15.5531C55.8824 15.3771 56.293 15.2422 56.7271 15.1484C57.1728 15.0545 57.6949 15.0076 58.2932 15.0076C59.5015 15.0076 60.4282 15.3009 61.0735 15.8875C61.7304 16.4623 62.0647 17.26 62.0765 18.2806L62.0941 24.4219H60.1056L60.088 18.4918ZM71.56 19.1429C71.56 18.4155 71.3606 17.8466 70.9617 17.436C70.5629 17.0136 70.0115 16.8025 69.3076 16.8025C68.4747 16.8142 67.8178 17.1075 67.3368 17.6823C66.8676 18.2571 66.6329 18.9728 66.6329 19.8291H66.0698C66.0698 18.6677 66.2341 17.7351 66.5625 17.0312C66.891 16.3274 67.3544 15.8171 67.9527 15.5003C68.5627 15.1719 69.2783 15.0076 70.0995 15.0076C70.8268 15.0076 71.4486 15.1543 71.9647 15.4475C72.4926 15.7408 72.8915 16.1573 73.1613 16.6969C73.4429 17.2248 73.5836 17.8642 73.5836 18.6149V24.4219H71.56V19.1429ZM64.6269 15.078H66.6505V24.4219H64.6269V15.078ZM76.2071 11.3651H78.2307V24.4219H76.2071V11.3651ZM82.3659 15.078H84.6887L78.0723 21.9407V19.53L82.3659 15.078ZM81.0286 18.4038L84.9527 24.4219H82.5595L79.5329 19.618L81.0286 18.4038ZM84.6217 12.1042H86.8565L90.6574 22.2399L94.4935 12.1042H96.6579L91.678 24.4219H89.5312L84.6217 12.1042ZM103.568 19.0725C103.545 18.5446 103.422 18.0988 103.199 17.7351C102.988 17.3597 102.689 17.0723 102.302 16.8729C101.914 16.6617 101.469 16.5561 100.964 16.5561C100.401 16.5561 99.9084 16.6852 99.486 16.9433C99.0755 17.2013 98.7529 17.565 98.5182 18.0343C98.2836 18.4918 98.1663 19.0314 98.1663 19.6532C98.1663 20.3218 98.2895 20.9025 98.5358 21.3952C98.7939 21.8879 99.1458 22.2692 99.5916 22.539C100.049 22.8088 100.571 22.9437 101.158 22.9437C102.202 22.9437 103.082 22.5742 103.797 21.8352L104.871 22.9086C104.413 23.413 103.856 23.806 103.199 24.0875C102.542 24.3574 101.809 24.4923 100.999 24.4923C100.037 24.4923 99.1986 24.2928 98.483 23.894C97.7674 23.4951 97.2102 22.9437 96.8113 22.2399C96.4125 21.5243 96.2131 20.6972 96.2131 19.7587C96.2131 18.8202 96.4125 17.9991 96.8113 17.2952C97.2102 16.5796 97.7674 16.0224 98.483 15.6235C99.1986 15.2246 100.02 15.0193 100.947 15.0076C102.049 15.0076 102.935 15.2364 103.604 15.6939C104.272 16.1397 104.747 16.7732 105.029 17.5943C105.311 18.4155 105.41 19.3892 105.328 20.5154H97.8496V19.0725H103.568ZM112.523 16.8377C111.855 16.8025 111.274 16.9198 110.781 17.1896C110.3 17.4477 109.925 17.8114 109.655 18.2806C109.397 18.7499 109.268 19.2895 109.268 19.8995L108.705 19.8291C108.705 18.7851 108.857 17.9052 109.162 17.1896C109.467 16.474 109.907 15.9344 110.482 15.5707C111.057 15.1953 111.737 15.0076 112.523 15.0076V16.8377ZM107.262 15.078H109.286V24.4219H107.262V15.078ZM119.343 17.348C118.932 17.1016 118.481 16.9081 117.988 16.7673C117.507 16.6148 117.061 16.5385 116.651 16.5385C116.252 16.5385 115.923 16.6148 115.665 16.7673C115.407 16.9198 115.278 17.172 115.278 17.524C115.278 17.8172 115.395 18.0519 115.63 18.2278C115.876 18.3921 116.187 18.5328 116.563 18.6501C116.938 18.7675 117.337 18.8906 117.759 19.0197C118.182 19.1487 118.58 19.3188 118.956 19.53C119.343 19.7294 119.654 20.0051 119.889 20.357C120.123 20.709 120.24 21.1723 120.24 21.7472C120.24 22.3807 120.07 22.9027 119.73 23.3133C119.402 23.7121 118.962 24.0113 118.41 24.2107C117.871 24.3984 117.284 24.4923 116.651 24.4923C115.97 24.4923 115.29 24.3808 114.609 24.1579C113.929 23.935 113.354 23.6124 112.885 23.1901L113.606 21.8176C114.017 22.1812 114.516 22.4686 115.102 22.6798C115.689 22.8792 116.234 22.9789 116.739 22.9789C117.032 22.9789 117.29 22.9437 117.513 22.8734C117.748 22.7912 117.929 22.6739 118.058 22.5214C118.199 22.3689 118.27 22.1695 118.27 21.9231C118.27 21.5947 118.152 21.3366 117.918 21.1489C117.683 20.9612 117.378 20.8087 117.003 20.6914C116.627 20.5623 116.228 20.4391 115.806 20.3218C115.384 20.1928 114.985 20.0286 114.609 19.8291C114.246 19.6297 113.947 19.3599 113.712 19.0197C113.477 18.6795 113.36 18.2278 113.36 17.6647C113.36 17.0312 113.524 16.5209 113.853 16.1338C114.181 15.7349 114.604 15.4475 115.12 15.2716C115.648 15.0839 116.211 14.99 116.809 14.99C117.396 14.99 117.982 15.0721 118.569 15.2364C119.155 15.4006 119.66 15.6294 120.082 15.9226L119.343 17.348ZM128.576 19.0725C128.553 18.5446 128.43 18.0988 128.207 17.7351C127.996 17.3597 127.697 17.0723 127.31 16.8729C126.922 16.6617 126.477 16.5561 125.972 16.5561C125.409 16.5561 124.916 16.6852 124.494 16.9433C124.083 17.2013 123.761 17.565 123.526 18.0343C123.292 18.4918 123.174 19.0314 123.174 19.6532C123.174 20.3218 123.297 20.9025 123.544 21.3952C123.802 21.8879 124.154 22.2692 124.6 22.539C125.057 22.8088 125.579 22.9437 126.166 22.9437C127.21 22.9437 128.09 22.5742 128.805 21.8352L129.879 22.9086C129.421 23.413 128.864 23.806 128.207 24.0875C127.55 24.3574 126.817 24.4923 126.007 24.4923C125.045 24.4923 124.207 24.2928 123.491 23.894C122.775 23.4951 122.218 22.9437 121.819 22.2399C121.42 21.5243 121.221 20.6972 121.221 19.7587C121.221 18.8202 121.42 17.9991 121.819 17.2952C122.218 16.5796 122.775 16.0224 123.491 15.6235C124.207 15.2246 125.028 15.0193 125.955 15.0076C127.057 15.0076 127.943 15.2364 128.612 15.6939C129.28 16.1397 129.755 16.7732 130.037 17.5943C130.319 18.4155 130.418 19.3892 130.336 20.5154H122.858V19.0725H128.576Z" fill="#4D4D4D" fill-opacity="0.6"/>
</g>
</g>
</g>
</g>
</svg>
